PathFileType	4	(X/Y/Z)	/Users/niels/Desktop/University/Third Semester/Perception and Action/Exam/Gymnastics Motion Tracking/Code for Gym Tracking/Analyzed Data/Webcam_Backflip/id1_3_baseline_Sports2D/id1_3_baseline_Sports2D_px_person00.trc
DataRate	CameraRate	NumFrames	NumMarkers	Units	OrigDataRate	OrigDataStartFrame	OrigNumFrames
29.87551867219917	29.87551867219917	8	22	m	29.87551867219917	60	241
Frame#	Time	Hip			RHip			RKnee			RAnkle			RBigToe			RSmallToe			RHeel			LHip			LKnee			LAnkle			LBigToe			LSmallToe			LHeel			Neck			Head			Nose			RShoulder			RElbow			RWrist			LShoulder			LElbow			LWrist		
		X1	Y1	Z1	X2	Y2	Z2	X3	Y3	Z3	X4	Y4	Z4	X5	Y5	Z5	X6	Y6	Z6	X7	Y7	Z7	X8	Y8	Z8	X9	Y9	Z9	X10	Y10	Z10	X11	Y11	Z11	X12	Y12	Z12	X13	Y13	Z13	X14	Y14	Z14	X15	Y15	Z15	X16	Y16	Z16	X17	Y17	Z17	X18	Y18	Z18	X19	Y19	Z19	X20	Y20	Z20	X21	Y21	Z21	X22	Y22	Z22
60	2.0083333333333333	0.9708948981238307	-0.48352519530312943	0.0	0.9752658521245021	-0.48639489325995366	0.0	1.0453847293873748	-0.5556351378776221	0.0	1.0028044108579321	-0.6652596449983781	0.0	1.0116349170784797	-0.7072641193542557	0.0	1.0044247653505851	-0.7058527442609341	0.0	0.9907965418655871	-0.6784605936247803	0.0	0.9667036211498625	-0.4821718068427023	0.0	1.0284948616037164	-0.5546207032166877	0.0	1.001185329808881	-0.6661076658771339	0.0	1.0162001598864159	-0.7075623467318372	0.0	1.0110866019361824	-0.7028682526690152	0.0	0.9858128684570814	-0.6751456361041287	0.0	0.9024630184573478	-0.3507058516000799	0.0	0.8514764289785752	-0.28536289316057284	0.0	0.8964671362116322	-0.3022444216664747	0.0	0.9041448709584877	-0.351715299733012	0.0	0.9215289075099099	-0.2806638852074879	0.0	0.9238364019298833	-0.21732726805573976	0.0	0.9065508896162936	-0.3474868118155406	0.0	0.9246368736252923	-0.2844018223526959	0.0	0.9247073477781531	-0.21947106757477072	0.0
61	2.0418055555555554	0.9713932501515221	-0.4530550152048999	0.0	0.9754523172941514	-0.456947762456331	0.0	1.0597822622218258	-0.4921834069024802	0.0	1.0259058641656926	-0.5995285385770118	0.0	1.0362921654516979	-0.6391011621440811	0.0	1.030668020701054	-0.6377732968466095	0.0	1.0154331398750702	-0.6121467620448611	0.0	0.9687494475841328	-0.4499334608961399	0.0	1.0433775967267207	-0.4899427469839887	0.0	1.0232654122236315	-0.5985294311769207	0.0	1.0369020075494055	-0.6372407197939126	0.0	1.0337207415233114	-0.6321131793016348	0.0	1.0098792782902115	-0.6081411367883075	0.0	0.8910014553089033	-0.32607095906563954	0.0	0.8353064137775971	-0.26551938040912365	0.0	0.8822089703559378	-0.27646336556989826	0.0	0.8950794368221264	-0.3283048688428219	0.0	0.9209429238678059	-0.2671703467133557	0.0	0.9289171244694997	-0.20443718735541552	0.0	0.897178271280051	-0.32325733170215104	0.0	0.9228404852463162	-0.26705557982677114	0.0	0.9279579651489549	-0.20512809232609855	0.0
62	2.075277777777778	0.9726372021047227	-0.42728479778984185	0.0	0.9765045314780144	-0.43197308603354057	0.0	1.0639994356019076	-0.4273164954642286	0.0	1.0475564083708933	-0.5298003031829757	0.0	1.0616459157436897	-0.5621405714902611	0.0	1.0582423363997406	-0.5620288427558924	0.0	1.0401125782317004	-0.5423866476670262	0.0	0.9709997977404432	-0.42189251508802034	0.0	1.0497342051807834	-0.423704055587572	0.0	1.044014075452108	-0.5263508795734083	0.0	1.0583909483325153	-0.5583189015915554	0.0	1.0571606797338893	-0.5535857427061273	0.0	1.0348093353702468	-0.5373627281753863	0.0	0.8815349041962448	-0.3085612541232931	0.0	0.8228445375030257	-0.25342451140987193	0.0	0.8701191173702457	-0.2585209986471027	0.0	0.8886350791471245	-0.31222494162955167	0.0	0.9269367285362432	-0.26454047551679033	0.0	0.9430021702535685	-0.2033396185927218	0.0	0.8894594905104448	-0.30686427939096955	0.0	0.926780787767672	-0.2608374022650238	0.0	0.9395190216808449	-0.20310159757319085	0.0
63	2.10875	0.9758200025201247	-0.40510205266829274	0.0	0.9797009433670651	-0.4099874859840352	0.0	1.0561810871436743	-0.3658870427936375	0.0	1.0634642438618591	-0.4589719104620242	0.0	1.0818757208917964	-0.4796554124547153	0.0	1.0813191393358377	-0.48159690774088093	0.0	1.06061958979915	-0.4718344422688621	0.0	0.9742772707886524	-0.39768175548112694	0.0	1.0449726425770636	-0.36136409517326623	0.0	1.0593355096613297	-0.45354916234569564	0.0	1.075628664827245	-0.47529598740713674	0.0	1.0756819979571919	-0.4717569591307934	0.0	1.056495270282301	-0.4662782406144491	0.0	0.8749558964469393	-0.2989929617172493	0.0	0.8144349335699212	-0.2503371300661354	0.0	0.8604121528324954	-0.24986376897741824	0.0	0.8850206362694066	-0.3040065240731291	0.0	0.9370494603370507	-0.2707664140521914	0.0	0.9615352719241783	-0.21081276835206164	0.0	0.8845806082067215	-0.2986682859055352	0.0	0.9338530074946667	-0.26432023835541996	0.0	0.9554378371561887	-0.21002931938596894	0.0
64	2.1422222222222222	0.9810555980075562	-0.3848133869064385	0.0	0.9850623247813817	-0.38912180451049494	0.0	1.03739038591656	-0.3126985566451755	0.0	1.069972049417786	-0.3903774690557334	0.0	1.0914361732873656	-0.39651510651014826	0.0	1.0942206274983735	-0.40059865644029113	0.0	1.07271273686799	-0.4031779142570808	0.0	0.978755267955364	-0.37644397886826986	0.0	1.0293563893517863	-0.3080004585498537	0.0	1.0658270163557335	-0.3842802052534329	0.0	1.0839981311083031	-0.3934663454034251	0.0	1.0839593872501143	-0.3914099154949295	0.0	1.0708793945005342	-0.398025733436709	0.0	0.8722873621782454	-0.2976244165351861	0.0	0.8110578425210665	-0.25732953796144603	0.0	0.8537925060265283	-0.2515859612513539	0.0	0.8844708263483416	-0.303244846606553	0.0	0.9488816261768758	-0.28254322949588656	0.0	0.9798631124988589	-0.22255822651482732	0.0	0.8835471216996483	-0.2981923138440294	0.0	0.9412311044641886	-0.2747013381397494	0.0	0.9716350808659321	-0.22137678233562352	0.0
65	2.1756944444444444	0.987170114902202	-0.364918812336611	0.0	0.9911693489278036	-0.3680160484576088	0.0	1.010845131701347	-0.2711107493052608	0.0	1.0656649127394235	-0.3275236849576582	0.0	1.087588433575537	-0.3186709924857016	0.0	1.0939030370602012	-0.324059063790826	0.0	1.0739577417749497	-0.3392746660989636	0.0	0.9839050296165481	-0.3571603745548995	0.0	1.0057078205573526	-0.26690641668463727	0.0	1.0622988541368568	-0.32219645434225186	0.0	1.0814623349696308	-0.3181041497690569	0.0	1.079600868795535	-0.31719509798529055	0.0	1.0754955188330624	-0.33524594963459275	0.0	0.8746412208725683	-0.30419718913448623	0.0	0.8146214825368182	-0.2750010187780135	0.0	0.8517625957756988	-0.26430458715919075	0.0	0.8874658916088858	-0.30894148203632993	0.0	0.9608326313637008	-0.2959576148931414	0.0	0.9946493210646827	-0.23411026938024201	0.0	0.8871119690887928	-0.30454224719228956	0.0	0.946957178315606	-0.2884546550042125	0.0	0.9851030826490291	-0.23274350832608415	0.0
66	2.2091666666666665	0.992251678765765	-0.34459462950879594	0.0	0.9958304841172689	-0.3461438928919828	0.0	0.9806470520389815	-0.24240448969964815	0.0	1.0521440876098718	-0.2733366485679036	0.0	1.0715329923511583	-0.25127342053622936	0.0	1.0810750400233022	-0.2566121925887254	0.0	1.064953424565641	-0.28290681677441004	0.0	0.9888352718070904	-0.33895344060187627	0.0	0.9781793775765463	-0.23909936266442525	0.0	1.0503667325416661	-0.26986149895472433	0.0	1.0689704330804235	-0.2534475764486705	0.0	1.0640344296298494	-0.2530047149764465	0.0	1.0703300424859006	-0.28018872735045436	0.0	0.8829768525868402	-0.3177203830288036	0.0	0.8272768022771476	-0.30281554271231925	0.0	0.8561772836093074	-0.2875739556511678	0.0	0.8945802816356461	-0.31982956885808017	0.0	0.9722202813589881	-0.30758077914745685	0.0	1.00452052908494	-0.24191122147812427	0.0	0.8958287197123566	-0.3165169317786821	0.0	0.9504630547717051	-0.30225297804670054	0.0	0.9944746105916212	-0.2410756921194408	0.0
67	2.242638888888889	0.9948009532608592	-0.32377686371926245	0.0	0.9973668780498285	-0.3237621255332062	0.0	0.9505582890410197	-0.22603432961815367	0.0	1.0326826580435053	-0.22938793057309445	0.0	1.0468282114851246	-0.19718148241029393	0.0	1.0587556140606416	-0.20126569789531293	0.0	1.0483561739763985	-0.2360019030368178	0.0	0.9928220363672549	-0.321280316011059	0.0	0.9508199833973101	-0.22375208300638794	0.0	1.033233367236485	-0.2284099637788773	0.0	1.0488990168049084	-0.20199185040182435	0.0	1.040899969414781	-0.20125932221877468	0.0	1.0573254447797682	-0.2344686379407072	0.0	0.8975434343733875	-0.33618177233409996	0.0	0.8499331401751922	-0.3383848848153904	0.0	0.868166433465281	-0.31920700600995305	0.0	0.9060791254082544	-0.3342676574740747	0.0	0.9828980509634262	-0.3153088514981845	0.0	1.0096800382172801	-0.24429430274665642	0.0	0.9097723167284885	-0.33236636594597235	0.0	0.9525111868628517	-0.313697745179742	0.0	0.9998701513805323	-0.24546667869624245	0.0
